<svg width="256" height="398" viewBox="0 0 256 398" fill="none" xmlns="http://www.w3.org/2000/svg">
<g id="Group 1">
<g id="Group 2">
<g id="Vector">
<path d="M76.3606 270.92L68.8846 280.176L33.2846 324.676C25.8086 334.288 14.7726 346.748 17.9766 358.496C24.0286 380.212 45.0326 380.212 59.9846 380.212H127.981V270.92H76.3606Z" fill="#FF6C02"/>
<path d="M127.981 270.92V380.212H196.333C211.285 380.212 234.425 377.72 238.341 358.496C240.833 346.392 230.509 334.288 223.033 324.676L187.433 280.176L179.957 270.92H127.981Z" fill="#FF6C02"/>
</g>
<g id="animateUp">
<path d="M74.9531 271L67.4771 280.256L31.8771 324.756C24.4011 334.368 13.3651 346.828 16.5691 358.576C22.6211 380.292 43.6251 380.292 58.5771 380.292H126.573V271H74.9531Z" fill="#FF6C02"/>
<path d="M126.573 271V380.292H194.925C209.877 380.292 233.017 377.8 236.933 358.576C239.425 346.472 229.101 334.368 221.625 324.756L186.025 280.256L178.549 271H126.573Z" fill="#FF6C02"/>
</g>
<g id="animateUp2">
<path d="M98.5638 274.026L94.3102 283.259L74.0546 327.646C69.801 337.233 63.5214 349.662 65.3489 361.378C68.8006 383.035 80.7589 383.031 89.2715 383.029L127.984 383.018L127.953 274.018L98.5638 274.026Z" fill="#FF6C02"/>
<path d="M127.953 274.018L127.984 383.018L166.899 383.007C175.411 383.004 188.585 380.515 190.809 361.342C192.224 349.27 186.343 337.2 182.084 327.615L161.803 283.24L157.544 274.01L127.953 274.018Z" fill="#FF6C02"/>
</g>
<path id="Union" fill-rule="evenodd" clip-rule="evenodd" d="M43.2526 397.3C26.5206 397.3 11.5686 387.688 4.44859 372.736C-3.02741 357.784 -0.891406 340.34 9.43259 327.168L54.2886 270.92L85.6166 231.048V144.896C76.3606 140.98 69.9526 131.724 69.9526 121.044C69.9526 109.652 77.4286 99.684 87.3966 96.124C87.8764 96.028 88.4339 95.8803 89.0551 95.7157C90.738 95.2698 92.8884 94.7 95.2286 94.7H159.665C174.261 94.7 186.009 106.448 186.009 121.044C186.009 131.724 179.601 141.336 170.345 145.252V231.404L201.673 270.92L246.529 327.168C256.853 340.34 258.633 357.784 251.513 372.736C244.393 388.044 229.441 397.3 213.065 397.3H43.2526ZM17.6206 358.496C23.6726 380.212 44.6766 380.212 59.6286 380.212H196.333C211.285 380.212 234.425 377.364 238.341 358.496C240.67 347.182 231.801 335.868 224.528 326.589C224.02 325.941 223.52 325.303 223.033 324.676L187.433 280.176L162.157 248.492L156.461 241.016L152.901 236.388V130.3L160.733 129.588C165.005 129.232 168.209 125.672 168.209 121.4C168.209 116.416 164.293 112.5 159.665 112.5H96.2966C91.6686 112.5 87.7526 116.416 87.7526 121.044C87.7526 125.672 90.9566 129.232 95.2286 129.588L103.061 130.3V236.388L99.5006 241.016L93.8046 248.492L76.0046 270.92L68.5286 280.176L32.9286 324.676C32.2747 325.517 31.5936 326.379 30.8972 327.261C23.6311 336.462 14.6968 347.776 17.6206 358.496Z" fill="#333333"/>
</g>
<circle id="bubble6" cx="151.481" cy="75.5" r="7.25" fill="#FFFAFA" stroke="black" stroke-width="0.5"/>
<path id="bubble2" d="M163.75 27.5C163.75 32.6215 159.82 36.75 155 36.75C150.18 36.75 146.25 32.6215 146.25 27.5C146.25 22.3785 150.18 18.25 155 18.25C159.82 18.25 163.75 22.3785 163.75 27.5Z" fill="#FFFAFA" stroke="black" stroke-width="0.5"/>
<path id="bubble3" d="M149.639 56C149.639 60.2676 145.983 63.75 141.444 63.75C136.906 63.75 133.25 60.2676 133.25 56C133.25 51.7324 136.906 48.25 141.444 48.25C145.983 48.25 149.639 51.7324 149.639 56Z" fill="#FFFAFA" stroke="black" stroke-width="0.5"/>
<circle id="bubble4" cx="113.5" cy="35.5" r="8.25" fill="#FFFAFA" stroke="black" stroke-width="0.5"/>
<circle id="bubble5" cx="111.5" cy="72.5" r="6.25" fill="#FFFAFA" stroke="black" stroke-width="0.5"/>
<path id="bubble1" d="M141.75 9C141.75 13.8199 137.622 17.75 132.5 17.75C127.378 17.75 123.25 13.8199 123.25 9C123.25 4.18007 127.378 0.25 132.5 0.25C137.622 0.25 141.75 4.18007 141.75 9Z" fill="#FFFAFA" stroke="black" stroke-width="0.5"/>
</g>
</svg>
