<svg width="1920" height="317" viewBox="0 0 1920 317" fill="none" xmlns="http://www.w3.org/2000/svg">
<path fill-rule="evenodd" clip-rule="evenodd" d="M0 71.9291H64C128 71.9291 256 71.9291 384 83.9172C512 95.9054 640 119.882 768 161.84C896 203.799 1024 263.74 1152 293.71C1280 323.681 1408 323.681 1536 299.704C1664 275.728 1792 227.775 1856 203.799L1920 179.823V-4.03343e-06H1856C1792 -4.03343e-06 1664 -4.03343e-06 1536 -4.03343e-06C1408 -4.03343e-06 1280 -4.03343e-06 1152 -4.03343e-06C1024 -4.03343e-06 896 -4.03343e-06 768 -4.03343e-06C640 -4.03343e-06 512 -4.03343e-06 384 -4.03343e-06C256 -4.03343e-06 128 -4.03343e-06 64 -4.03343e-06H0V71.9291Z" fill="#0099FF"/>
</svg>
